<mxfile host="app.diagrams.net" modified="2022-10-19T11:09:00.943Z" agent="5.0 (X11; Linux x86_64) AppleWebKit/537.36 (KHTML, like Gecko) Chrome/106.0.0.0 Safari/537.36" etag="8cM3KhnKXYRQD3AH0mZE" version="20.4.0" type="github">
  <diagram id="xfpPH89cHQfOXDWIT-VO" name="Page-1">
    <mxGraphModel dx="2280" dy="1176" grid="1" gridSize="10" guides="1" tooltips="1" connect="1" arrows="1" fold="1" page="1" pageScale="1" pageWidth="1000" pageHeight="1000" math="0" shadow="0">
      <root>
        <object label="" id="0">
          <mxCell />
        </object>
        <mxCell id="1" parent="0" />
        <mxCell id="O8gRIZSJX7mcF4E10rF2-291" value="" style="shape=table;startSize=0;container=1;collapsible=0;childLayout=tableLayout;" vertex="1" parent="1">
          <mxGeometry x="140" y="343" width="270" height="315" as="geometry" />
        </mxCell>
        <mxCell id="O8gRIZSJX7mcF4E10rF2-292" value="" style="shape=tableRow;horizontal=0;startSize=0;swimlaneHead=0;swimlaneBody=0;top=0;left=0;bottom=0;right=0;collapsible=0;dropTarget=0;fillColor=none;points=[[0,0.5],[1,0.5]];portConstraint=eastwest;" vertex="1" parent="O8gRIZSJX7mcF4E10rF2-291">
          <mxGeometry width="270" height="78" as="geometry" />
        </mxCell>
        <mxCell id="O8gRIZSJX7mcF4E10rF2-293" value="&lt;font size=&quot;1&quot; style=&quot;&quot;&gt;&lt;b style=&quot;font-size: 20px;&quot;&gt;APLICACIÓN&lt;/b&gt;&lt;/font&gt;" style="shape=partialRectangle;html=1;whiteSpace=wrap;connectable=0;overflow=hidden;fillColor=none;top=0;left=0;bottom=0;right=0;pointerEvents=1;" vertex="1" parent="O8gRIZSJX7mcF4E10rF2-292">
          <mxGeometry width="270" height="78" as="geometry">
            <mxRectangle width="270" height="78" as="alternateBounds" />
          </mxGeometry>
        </mxCell>
        <mxCell id="O8gRIZSJX7mcF4E10rF2-294" value="" style="shape=tableRow;horizontal=0;startSize=0;swimlaneHead=0;swimlaneBody=0;top=0;left=0;bottom=0;right=0;collapsible=0;dropTarget=0;fillColor=none;points=[[0,0.5],[1,0.5]];portConstraint=eastwest;" vertex="1" parent="O8gRIZSJX7mcF4E10rF2-291">
          <mxGeometry y="78" width="270" height="82" as="geometry" />
        </mxCell>
        <mxCell id="O8gRIZSJX7mcF4E10rF2-295" value="&lt;font style=&quot;font-size: 20px;&quot;&gt;&lt;b&gt;TRANSPORTE&lt;/b&gt;&lt;/font&gt;" style="shape=partialRectangle;html=1;whiteSpace=wrap;connectable=0;overflow=hidden;fillColor=none;top=0;left=0;bottom=0;right=0;pointerEvents=1;" vertex="1" parent="O8gRIZSJX7mcF4E10rF2-294">
          <mxGeometry width="270" height="82" as="geometry">
            <mxRectangle width="270" height="82" as="alternateBounds" />
          </mxGeometry>
        </mxCell>
        <mxCell id="O8gRIZSJX7mcF4E10rF2-296" value="" style="shape=tableRow;horizontal=0;startSize=0;swimlaneHead=0;swimlaneBody=0;top=0;left=0;bottom=0;right=0;collapsible=0;dropTarget=0;fillColor=none;points=[[0,0.5],[1,0.5]];portConstraint=eastwest;" vertex="1" parent="O8gRIZSJX7mcF4E10rF2-291">
          <mxGeometry y="160" width="270" height="78" as="geometry" />
        </mxCell>
        <mxCell id="O8gRIZSJX7mcF4E10rF2-297" value="&lt;font style=&quot;font-size: 20px;&quot;&gt;&lt;b&gt;RED&lt;/b&gt;&lt;/font&gt;" style="shape=partialRectangle;html=1;whiteSpace=wrap;connectable=0;overflow=hidden;fillColor=none;top=0;left=0;bottom=0;right=0;pointerEvents=1;" vertex="1" parent="O8gRIZSJX7mcF4E10rF2-296">
          <mxGeometry width="270" height="78" as="geometry">
            <mxRectangle width="270" height="78" as="alternateBounds" />
          </mxGeometry>
        </mxCell>
        <mxCell id="O8gRIZSJX7mcF4E10rF2-298" value="" style="shape=tableRow;horizontal=0;startSize=0;swimlaneHead=0;swimlaneBody=0;top=0;left=0;bottom=0;right=0;collapsible=0;dropTarget=0;fillColor=none;points=[[0,0.5],[1,0.5]];portConstraint=eastwest;" vertex="1" parent="O8gRIZSJX7mcF4E10rF2-291">
          <mxGeometry y="238" width="270" height="77" as="geometry" />
        </mxCell>
        <mxCell id="O8gRIZSJX7mcF4E10rF2-299" value="&lt;b&gt;&lt;font style=&quot;font-size: 20px;&quot;&gt;ACCESO A RED&lt;/font&gt;&lt;/b&gt;" style="shape=partialRectangle;html=1;whiteSpace=wrap;connectable=0;overflow=hidden;fillColor=none;top=0;left=0;bottom=0;right=0;pointerEvents=1;" vertex="1" parent="O8gRIZSJX7mcF4E10rF2-298">
          <mxGeometry width="270" height="77" as="geometry">
            <mxRectangle width="270" height="77" as="alternateBounds" />
          </mxGeometry>
        </mxCell>
        <mxCell id="O8gRIZSJX7mcF4E10rF2-300" value="" style="shape=table;startSize=0;container=1;collapsible=0;childLayout=tableLayout;" vertex="1" parent="1">
          <mxGeometry x="590" y="343" width="270" height="315" as="geometry" />
        </mxCell>
        <mxCell id="O8gRIZSJX7mcF4E10rF2-301" value="" style="shape=tableRow;horizontal=0;startSize=0;swimlaneHead=0;swimlaneBody=0;top=0;left=0;bottom=0;right=0;collapsible=0;dropTarget=0;fillColor=none;points=[[0,0.5],[1,0.5]];portConstraint=eastwest;" vertex="1" parent="O8gRIZSJX7mcF4E10rF2-300">
          <mxGeometry width="270" height="78" as="geometry" />
        </mxCell>
        <mxCell id="O8gRIZSJX7mcF4E10rF2-302" value="&lt;font size=&quot;1&quot; style=&quot;&quot;&gt;&lt;b style=&quot;font-size: 20px;&quot;&gt;APLICACIÓN&lt;/b&gt;&lt;/font&gt;" style="shape=partialRectangle;html=1;whiteSpace=wrap;connectable=0;overflow=hidden;fillColor=none;top=0;left=0;bottom=0;right=0;pointerEvents=1;" vertex="1" parent="O8gRIZSJX7mcF4E10rF2-301">
          <mxGeometry width="270" height="78" as="geometry">
            <mxRectangle width="270" height="78" as="alternateBounds" />
          </mxGeometry>
        </mxCell>
        <mxCell id="O8gRIZSJX7mcF4E10rF2-303" value="" style="shape=tableRow;horizontal=0;startSize=0;swimlaneHead=0;swimlaneBody=0;top=0;left=0;bottom=0;right=0;collapsible=0;dropTarget=0;fillColor=none;points=[[0,0.5],[1,0.5]];portConstraint=eastwest;" vertex="1" parent="O8gRIZSJX7mcF4E10rF2-300">
          <mxGeometry y="78" width="270" height="82" as="geometry" />
        </mxCell>
        <mxCell id="O8gRIZSJX7mcF4E10rF2-304" value="&lt;font style=&quot;font-size: 20px;&quot;&gt;&lt;b&gt;TRANSPORTE&lt;/b&gt;&lt;/font&gt;" style="shape=partialRectangle;html=1;whiteSpace=wrap;connectable=0;overflow=hidden;fillColor=none;top=0;left=0;bottom=0;right=0;pointerEvents=1;" vertex="1" parent="O8gRIZSJX7mcF4E10rF2-303">
          <mxGeometry width="270" height="82" as="geometry">
            <mxRectangle width="270" height="82" as="alternateBounds" />
          </mxGeometry>
        </mxCell>
        <mxCell id="O8gRIZSJX7mcF4E10rF2-305" value="" style="shape=tableRow;horizontal=0;startSize=0;swimlaneHead=0;swimlaneBody=0;top=0;left=0;bottom=0;right=0;collapsible=0;dropTarget=0;fillColor=none;points=[[0,0.5],[1,0.5]];portConstraint=eastwest;" vertex="1" parent="O8gRIZSJX7mcF4E10rF2-300">
          <mxGeometry y="160" width="270" height="78" as="geometry" />
        </mxCell>
        <mxCell id="O8gRIZSJX7mcF4E10rF2-306" value="&lt;font style=&quot;font-size: 20px;&quot;&gt;&lt;b&gt;RED&lt;/b&gt;&lt;/font&gt;" style="shape=partialRectangle;html=1;whiteSpace=wrap;connectable=0;overflow=hidden;fillColor=none;top=0;left=0;bottom=0;right=0;pointerEvents=1;" vertex="1" parent="O8gRIZSJX7mcF4E10rF2-305">
          <mxGeometry width="270" height="78" as="geometry">
            <mxRectangle width="270" height="78" as="alternateBounds" />
          </mxGeometry>
        </mxCell>
        <mxCell id="O8gRIZSJX7mcF4E10rF2-307" value="" style="shape=tableRow;horizontal=0;startSize=0;swimlaneHead=0;swimlaneBody=0;top=0;left=0;bottom=0;right=0;collapsible=0;dropTarget=0;fillColor=none;points=[[0,0.5],[1,0.5]];portConstraint=eastwest;" vertex="1" parent="O8gRIZSJX7mcF4E10rF2-300">
          <mxGeometry y="238" width="270" height="77" as="geometry" />
        </mxCell>
        <mxCell id="O8gRIZSJX7mcF4E10rF2-308" value="&lt;b&gt;&lt;font style=&quot;font-size: 20px;&quot;&gt;ACCESO A RED&lt;/font&gt;&lt;/b&gt;" style="shape=partialRectangle;html=1;whiteSpace=wrap;connectable=0;overflow=hidden;fillColor=none;top=0;left=0;bottom=0;right=0;pointerEvents=1;" vertex="1" parent="O8gRIZSJX7mcF4E10rF2-307">
          <mxGeometry width="270" height="77" as="geometry">
            <mxRectangle width="270" height="77" as="alternateBounds" />
          </mxGeometry>
        </mxCell>
        <mxCell id="O8gRIZSJX7mcF4E10rF2-309" value="" style="endArrow=none;dashed=1;html=1;rounded=0;fontSize=20;exitX=1;exitY=0.5;exitDx=0;exitDy=0;entryX=0;entryY=0.5;entryDx=0;entryDy=0;" edge="1" parent="1" source="O8gRIZSJX7mcF4E10rF2-292" target="O8gRIZSJX7mcF4E10rF2-301">
          <mxGeometry width="50" height="50" relative="1" as="geometry">
            <mxPoint x="620" y="550" as="sourcePoint" />
            <mxPoint x="670" y="500" as="targetPoint" />
          </mxGeometry>
        </mxCell>
        <mxCell id="O8gRIZSJX7mcF4E10rF2-310" value="" style="endArrow=none;dashed=1;html=1;rounded=0;fontSize=20;exitX=1;exitY=0.5;exitDx=0;exitDy=0;entryX=0;entryY=0.5;entryDx=0;entryDy=0;" edge="1" parent="1">
          <mxGeometry width="50" height="50" relative="1" as="geometry">
            <mxPoint x="410" y="460" as="sourcePoint" />
            <mxPoint x="590" y="460" as="targetPoint" />
          </mxGeometry>
        </mxCell>
        <mxCell id="O8gRIZSJX7mcF4E10rF2-311" value="" style="endArrow=none;dashed=1;html=1;rounded=0;fontSize=20;exitX=1;exitY=0.5;exitDx=0;exitDy=0;entryX=0;entryY=0.5;entryDx=0;entryDy=0;" edge="1" parent="1">
          <mxGeometry width="50" height="50" relative="1" as="geometry">
            <mxPoint x="410" y="550" as="sourcePoint" />
            <mxPoint x="590" y="550" as="targetPoint" />
          </mxGeometry>
        </mxCell>
        <mxCell id="O8gRIZSJX7mcF4E10rF2-312" value="" style="endArrow=none;dashed=1;html=1;rounded=0;fontSize=20;exitX=1;exitY=0.5;exitDx=0;exitDy=0;entryX=0;entryY=0.5;entryDx=0;entryDy=0;" edge="1" parent="1">
          <mxGeometry width="50" height="50" relative="1" as="geometry">
            <mxPoint x="410" y="620" as="sourcePoint" />
            <mxPoint x="590" y="620" as="targetPoint" />
          </mxGeometry>
        </mxCell>
        <mxCell id="O8gRIZSJX7mcF4E10rF2-313" value="DATOS" style="text;html=1;align=center;verticalAlign=middle;resizable=0;points=[];autosize=1;strokeColor=none;fillColor=none;fontSize=20;" vertex="1" parent="1">
          <mxGeometry x="455" y="340" width="90" height="40" as="geometry" />
        </mxCell>
        <mxCell id="O8gRIZSJX7mcF4E10rF2-314" value="SEGMENTOS&lt;span style=&quot;color: rgba(0, 0, 0, 0); font-family: monospace; font-size: 0px; text-align: start;&quot;&gt;%3CmxGraphModel%3E%3Croot%3E%3CmxCell%20id%3D%220%22%2F%3E%3CmxCell%20id%3D%221%22%20parent%3D%220%22%2F%3E%3CmxCell%20id%3D%222%22%20value%3D%22DATOS%22%20style%3D%22text%3Bhtml%3D1%3Balign%3Dcenter%3BverticalAlign%3Dmiddle%3Bresizable%3D0%3Bpoints%3D%5B%5D%3Bautosize%3D1%3BstrokeColor%3Dnone%3BfillColor%3Dnone%3BfontSize%3D20%3B%22%20vertex%3D%221%22%20parent%3D%221%22%3E%3CmxGeometry%20x%3D%22455%22%20y%3D%22340%22%20width%3D%2290%22%20height%3D%2240%22%20as%3D%22geometry%22%2F%3E%3C%2FmxCell%3E%3C%2Froot%3E%3C%2FmxGraphModel%3E&lt;/span&gt;" style="text;html=1;align=center;verticalAlign=middle;resizable=0;points=[];autosize=1;strokeColor=none;fillColor=none;fontSize=20;" vertex="1" parent="1">
          <mxGeometry x="425" y="420" width="150" height="40" as="geometry" />
        </mxCell>
        <mxCell id="O8gRIZSJX7mcF4E10rF2-315" value="PAQUETES" style="text;html=1;align=center;verticalAlign=middle;resizable=0;points=[];autosize=1;strokeColor=none;fillColor=none;fontSize=20;" vertex="1" parent="1">
          <mxGeometry x="435" y="510" width="130" height="40" as="geometry" />
        </mxCell>
        <mxCell id="O8gRIZSJX7mcF4E10rF2-316" value="TRAMAS" style="text;html=1;align=center;verticalAlign=middle;resizable=0;points=[];autosize=1;strokeColor=none;fillColor=none;fontSize=20;" vertex="1" parent="1">
          <mxGeometry x="445" y="580" width="110" height="40" as="geometry" />
        </mxCell>
        <mxCell id="O8gRIZSJX7mcF4E10rF2-318" value="BITS" style="text;html=1;align=center;verticalAlign=middle;resizable=0;points=[];autosize=1;strokeColor=none;fillColor=none;fontSize=20;" vertex="1" parent="1">
          <mxGeometry x="465" y="658" width="70" height="40" as="geometry" />
        </mxCell>
        <mxCell id="O8gRIZSJX7mcF4E10rF2-320" value="" style="endArrow=none;dashed=1;html=1;rounded=0;fontSize=20;" edge="1" parent="1">
          <mxGeometry width="50" height="50" relative="1" as="geometry">
            <mxPoint x="240" y="720" as="sourcePoint" />
            <mxPoint x="740" y="720" as="targetPoint" />
          </mxGeometry>
        </mxCell>
        <mxCell id="O8gRIZSJX7mcF4E10rF2-322" value="" style="endArrow=classic;html=1;rounded=0;fontSize=20;" edge="1" parent="1">
          <mxGeometry width="50" height="50" relative="1" as="geometry">
            <mxPoint x="740" y="721" as="sourcePoint" />
            <mxPoint x="740" y="301" as="targetPoint" />
          </mxGeometry>
        </mxCell>
        <mxCell id="O8gRIZSJX7mcF4E10rF2-323" value="" style="endArrow=none;dashed=1;html=1;rounded=0;fontSize=20;" edge="1" parent="1">
          <mxGeometry width="50" height="50" relative="1" as="geometry">
            <mxPoint x="410" y="658" as="sourcePoint" />
            <mxPoint x="590" y="658" as="targetPoint" />
          </mxGeometry>
        </mxCell>
        <mxCell id="O8gRIZSJX7mcF4E10rF2-325" value="" style="endArrow=none;dashed=1;html=1;rounded=0;fontSize=20;" edge="1" parent="1">
          <mxGeometry width="50" height="50" relative="1" as="geometry">
            <mxPoint x="240" y="310" as="sourcePoint" />
            <mxPoint x="240" y="720" as="targetPoint" />
          </mxGeometry>
        </mxCell>
        <mxCell id="O8gRIZSJX7mcF4E10rF2-326" value="" style="endArrow=classic;html=1;rounded=0;fontSize=20;" edge="1" parent="1">
          <mxGeometry width="50" height="50" relative="1" as="geometry">
            <mxPoint x="260" y="720" as="sourcePoint" />
            <mxPoint x="260" y="300" as="targetPoint" />
          </mxGeometry>
        </mxCell>
        <mxCell id="O8gRIZSJX7mcF4E10rF2-327" value="" style="endArrow=none;dashed=1;html=1;rounded=0;fontSize=20;" edge="1" parent="1">
          <mxGeometry width="50" height="50" relative="1" as="geometry">
            <mxPoint x="720" y="310" as="sourcePoint" />
            <mxPoint x="720" y="720" as="targetPoint" />
          </mxGeometry>
        </mxCell>
      </root>
    </mxGraphModel>
  </diagram>
</mxfile>
